<?xml version="1.0" standalone="no"?>
<!DOCTYPE svg PUBLIC "-//W3C//DTD SVG 20010904//EN"
 "http://www.w3.org/TR/2001/REC-SVG-20010904/DTD/svg10.dtd">
<svg version="1.0" xmlns="http://www.w3.org/2000/svg"
 width="2753.000000pt" height="2753.000000pt" viewBox="0 0 2753.000000 2753.000000"
 preserveAspectRatio="xMidYMid meet">
<metadata>
Created by potrace 1.14, written by Peter Selinger 2001-2017
</metadata>
<g transform="translate(0.000000,2753.000000) scale(0.100000,-0.100000)"
fill="#000000" stroke="none">
<path d="M15470 22882 c-6 -2 -8 -8 -4 -13 3 -5 -3 -10 -13 -10 -10 -1 -1678
-3 -3708 -4 -3466 -3 -4442 -7 -4610 -18 -38 -3 -117 -8 -175 -12 -58 -4 -113
-9 -123 -11 -10 -2 -55 -6 -100 -9 -45 -3 -93 -8 -107 -10 -14 -2 -50 -6 -80
-10 -30 -4 -66 -8 -80 -10 -14 -2 -47 -6 -75 -10 -135 -16 -325 -47 -516 -85
-85 -18 -165 -34 -179 -36 -335 -65 -1078 -298 -1356 -424 -23 -11 -45 -20
-48 -20 -3 0 -48 -19 -98 -41 -556 -248 -1018 -517 -1463 -852 -188 -141 -193
-146 -364 -292 -134 -114 -203 -178 -366 -340 -112 -112 -176 -180 -360 -385
-17 -19 -83 -100 -146 -180 -629 -792 -1049 -1659 -1295 -2672 -2 -10 -6 -26
-8 -35 -18 -69 -85 -409 -91 -460 -3 -22 -14 -92 -20 -124 -2 -9 -6 -40 -10
-69 -4 -29 -8 -60 -10 -69 -1 -9 -6 -47 -10 -84 -3 -37 -8 -77 -10 -88 -2 -10
-7 -54 -10 -97 -3 -42 -8 -99 -10 -127 -27 -297 -27 -1054 0 -1260 2 -16 7
-65 10 -107 4 -43 8 -90 10 -105 2 -16 6 -55 9 -88 7 -62 34 -251 42 -295 9
-49 17 -95 18 -110 3 -19 14 -81 26 -140 6 -25 12 -56 14 -70 13 -72 51 -234
105 -445 126 -488 374 -1096 639 -1565 107 -189 325 -530 409 -639 7 -9 49
-65 94 -126 45 -60 85 -112 88 -115 4 -3 22 -25 41 -50 37 -48 49 -62 125
-150 164 -190 406 -439 579 -595 49 -44 94 -85 100 -90 12 -11 176 -148 246
-205 60 -48 233 -178 305 -228 71 -50 282 -192 310 -209 11 -7 47 -29 80 -49
104 -64 267 -159 357 -207 99 -54 404 -207 412 -207 2 0 37 -15 78 -34 213
-98 662 -271 808 -312 8 -2 97 -29 198 -59 101 -30 193 -57 205 -59 12 -2 49
-12 82 -21 33 -9 67 -18 75 -20 83 -21 508 -110 575 -120 23 -3 52 -8 65 -10
14 -3 54 -10 90 -15 36 -5 76 -12 90 -14 34 -6 91 -13 245 -31 185 -22 200
-23 295 -30 47 -4 103 -8 125 -10 277 -27 1289 -27 1555 -1 19 2 81 7 138 11
57 3 113 8 125 10 12 2 49 6 82 10 116 12 151 16 255 31 139 20 160 23 195 29
17 3 57 10 90 16 46 8 285 57 405 84 73 16 355 97 480 137 502 163 886 347
1465 701 75 46 409 274 500 341 61 45 116 85 123 90 8 5 32 -6 65 -31 295
-220 821 -525 1207 -701 134 -61 158 -71 270 -117 63 -25 129 -52 145 -60 169
-75 828 -282 1025 -321 14 -3 43 -10 65 -16 22 -5 47 -12 55 -13 8 -2 67 -15
130 -29 119 -26 138 -29 205 -41 22 -3 60 -10 85 -15 25 -5 63 -12 85 -15 22
-3 65 -10 95 -15 106 -18 324 -46 420 -55 36 -3 79 -8 95 -10 47 -7 178 -17
400 -32 154 -10 892 -10 1055 0 69 4 157 10 195 12 77 5 191 14 245 20 19 2
66 7 103 10 37 4 76 8 85 10 10 2 48 6 84 9 37 4 75 8 85 10 10 2 41 7 68 10
59 8 101 15 135 21 14 3 43 7 65 10 22 3 51 7 65 10 14 3 76 14 138 26 113 20
309 61 407 84 326 78 886 254 1079 339 17 8 81 34 141 59 152 63 427 191 505
237 25 15 47 26 50 26 12 0 287 157 425 243 396 246 598 418 745 632 124 181
232 445 256 628 3 25 10 66 15 91 16 82 3 384 -21 500 -40 198 -117 389 -221
556 -24 38 -46 71 -49 74 -3 3 -19 23 -35 45 -44 59 -138 158 -229 240 -31 28
-195 174 -226 201 -31 28 -67 59 -190 171 -176 159 -310 254 -462 328 -37 18
-68 31 -68 28 0 -3 -6 -1 -12 4 -36 29 -264 92 -398 110 -108 15 -470 7 -500
-12 -3 -2 -23 -6 -45 -9 -173 -28 -451 -149 -625 -272 -52 -37 -97 -70 -100
-74 -7 -8 -210 -138 -285 -182 -359 -213 -831 -372 -1254 -423 -30 -4 -63 -9
-75 -11 -45 -9 -269 -18 -411 -18 -196 1 -422 17 -545 39 -14 3 -41 7 -60 10
-19 3 -46 7 -60 10 -14 3 -39 7 -56 10 -116 19 -486 130 -566 169 -17 9 -35
16 -40 16 -6 0 -69 29 -142 64 -186 90 -363 199 -496 303 -13 10 -2 25 75 99
147 141 265 253 385 364 189 176 314 337 414 536 43 86 104 237 121 299 4 17
9 35 11 40 12 41 45 219 51 274 10 83 10 326 1 407 -21 183 -84 405 -163 569
-39 80 -127 234 -154 267 -161 199 -207 246 -480 488 -298 264 -555 389 -950
465 -62 12 -178 19 -298 19 -73 0 -133 2 -133 4 0 2 9 40 21 85 44 177 134
430 212 600 l36 77 5273 1 c2900 1 5289 2 5308 4 96 7 187 16 200 20 8 3 31 7
50 9 118 16 315 70 479 133 107 41 288 127 314 150 9 9 17 13 17 9 0 -3 33 15
73 41 452 295 791 697 979 1163 66 163 124 370 143 505 3 22 8 47 10 55 15 62
20 196 20 615 0 264 -4 505 -8 535 -48 328 -111 543 -233 797 -233 481 -645
895 -1119 1123 -71 34 -139 66 -150 70 -11 4 -36 15 -55 23 -37 15 -183 64
-216 72 -10 3 -55 13 -99 24 -108 26 -242 49 -345 58 -47 4 -1325 7 -2842 7
-2449 1 -2755 3 -2748 16 7 13 -229 15 -2111 15 -1165 0 -2124 -2 -2129 -3z
m-10225 -5366 c61 -4 144 -9 185 -11 225 -14 450 -23 985 -40 545 -17 1214
-24 2414 -25 l973 0 -5 -22 c-11 -52 -46 -215 -51 -238 -2 -14 -7 -36 -10 -50
-3 -14 -8 -38 -11 -55 -3 -16 -11 -68 -19 -115 -8 -47 -18 -105 -21 -130 -3
-25 -8 -56 -10 -70 -3 -14 -7 -47 -10 -75 -3 -27 -8 -61 -10 -75 -2 -14 -7
-50 -10 -80 -3 -30 -8 -77 -11 -105 -28 -262 -42 -778 -30 -1075 6 -135 16
-302 21 -345 2 -22 7 -71 10 -110 7 -81 13 -137 19 -180 2 -16 7 -55 11 -85 6
-52 9 -75 20 -137 2 -16 11 -71 19 -123 9 -52 18 -106 21 -120 3 -14 10 -50
16 -80 5 -30 12 -66 15 -80 3 -14 11 -53 19 -86 8 -34 16 -73 19 -85 9 -42 14
-63 31 -129 9 -36 18 -72 20 -80 24 -105 189 -621 216 -671 9 -18 -2 -27 -216
-169 -499 -332 -958 -527 -1437 -609 -65 -11 -159 -24 -210 -28 -155 -13 -481
-6 -628 12 -19 3 -57 7 -85 10 -137 17 -359 60 -485 95 -41 11 -82 22 -90 24
-34 9 -188 60 -230 76 -190 76 -329 141 -470 221 -60 33 -275 175 -293 193 -7
7 -30 25 -52 41 -82 61 -173 144 -291 265 -300 308 -526 681 -679 1120 -53
153 -111 365 -131 480 -2 14 -8 45 -14 70 -9 46 -15 85 -25 155 -3 22 -8 51
-10 65 -2 14 -7 57 -10 95 -4 39 -8 81 -11 95 -6 38 -16 281 -16 405 -1 107
10 380 17 413 1 9 6 51 9 93 4 42 9 89 12 105 3 16 7 43 8 59 2 17 6 44 9 60
4 17 9 47 12 67 2 21 9 57 14 80 6 24 13 59 16 78 3 19 11 53 16 75 6 22 13
47 14 55 19 84 112 374 139 432 8 18 24 56 35 83 10 28 42 98 70 157 46 95 65
121 81 113 3 -2 55 -6 115 -9z"/>
<path d="M2968 7405 c-2 -1 -23 -5 -48 -9 -177 -23 -367 -98 -505 -201 -168
-125 -287 -293 -349 -496 -35 -113 -44 -183 -44 -317 2 -449 263 -807 693
-950 50 -17 108 -33 130 -38 22 -4 49 -9 60 -11 45 -9 344 -11 400 -2 203 30
363 93 503 199 69 52 100 82 167 158 l19 23 -29 27 c-17 15 -61 54 -99 87 -39
33 -81 71 -95 85 -14 14 -60 55 -101 90 -41 36 -78 69 -82 74 -4 6 -40 -22
-82 -61 -170 -162 -377 -201 -572 -108 -157 75 -244 233 -244 439 0 138 41
253 121 340 101 110 261 159 430 131 49 -8 179 -63 179 -76 0 -4 9 -10 19 -14
11 -3 47 -33 80 -67 l60 -61 82 74 c46 41 90 81 99 89 45 41 169 150 198 174
17 15 32 31 32 36 0 16 -136 149 -196 192 -55 40 -124 77 -224 121 -47 21
-148 46 -244 62 -67 11 -348 19 -358 10z"/>
<path d="M14320 7395 c-171 -28 -363 -107 -489 -200 -40 -30 -183 -177 -214
-221 -78 -109 -144 -276 -166 -421 -17 -110 -7 -321 19 -423 92 -356 362 -621
735 -720 113 -29 160 -34 330 -35 247 0 371 27 563 123 84 42 217 145 275 214
l39 47 -28 29 c-16 16 -65 60 -109 98 -44 38 -89 78 -101 89 -45 43 -157 140
-171 148 -9 6 -21 0 -35 -18 -71 -91 -196 -167 -309 -190 -37 -8 -139 -8 -189
-1 -64 9 -178 68 -226 116 -83 82 -134 215 -135 350 -2 295 177 490 451 492
150 1 252 -43 377 -165 l62 -61 54 50 c29 27 71 65 93 84 37 32 149 132 233
207 l36 31 -41 49 c-135 161 -377 289 -618 327 -109 17 -335 17 -436 1z"/>
<path d="M23630 7075 l0 -215 -105 0 -105 0 0 -230 0 -230 28 -1 c15 0 62 0
105 0 l77 0 1 -247 c0 -136 3 -260 5 -277 35 -228 152 -376 357 -450 90 -33
114 -36 282 -40 152 -4 241 6 332 39 82 29 83 30 68 78 -22 71 -133 389 -138
394 -2 2 -18 -3 -35 -11 -49 -25 -123 -30 -163 -11 -68 32 -74 54 -75 303 l-2
221 137 0 c75 0 146 1 157 1 21 1 22 3 21 231 l0 230 -157 0 -157 0 0 213 1
212 -317 3 -317 2 0 -215z"/>
<path d="M4765 6960 c-94 -15 -115 -20 -196 -50 -244 -89 -431 -272 -490 -480
-7 -25 -14 -49 -15 -55 -23 -81 -29 -284 -11 -361 82 -347 342 -570 726 -625
113 -16 313 -6 416 21 286 74 496 254 580 496 35 103 44 167 41 294 -5 148
-20 217 -73 325 -105 211 -301 355 -573 421 -73 18 -325 26 -405 14z m274
-510 c89 -45 134 -132 135 -260 1 -99 -5 -136 -30 -182 -50 -90 -115 -130
-213 -131 -106 0 -177 48 -224 153 -31 67 -30 226 1 295 36 80 93 129 167 145
47 10 124 1 164 -20z"/>
<path d="M8958 6965 c-2 -2 -21 -5 -43 -8 -94 -13 -229 -76 -292 -136 -18 -17
-34 -31 -36 -31 -3 0 -5 28 -5 63 0 34 -1 68 -1 75 -1 9 -68 12 -301 12 l-300
0 0 -765 0 -765 318 0 317 0 -1 368 c0 246 3 384 11 417 36 158 141 225 345
221 l107 -3 -1 276 -1 276 -57 1 c-31 1 -58 0 -60 -1z"/>
<path d="M9809 6966 c-2 -2 -24 -6 -49 -10 -86 -11 -115 -18 -190 -42 -188
-63 -314 -171 -370 -319 -18 -47 -22 -80 -22 -150 1 -96 1 -99 22 -160 31 -93
102 -171 203 -222 57 -29 189 -70 255 -78 15 -2 41 -6 57 -9 17 -2 59 -7 95
-11 160 -16 215 -30 239 -59 19 -23 0 -63 -36 -77 -54 -21 -238 -19 -373 5
-59 11 -192 56 -254 87 -46 23 -61 27 -68 17 -4 -7 -8 -16 -8 -21 0 -4 -9 -26
-19 -50 -11 -23 -47 -107 -80 -187 -54 -131 -58 -146 -43 -158 44 -34 256 -99
382 -117 25 -4 70 -11 100 -15 61 -9 375 -6 430 5 245 46 398 130 491 269 48
72 70 143 71 233 2 132 -34 226 -117 308 -79 77 -221 137 -376 159 -25 4 -57
8 -70 10 -13 2 -49 7 -79 11 -58 6 -118 16 -135 20 -5 1 -24 6 -42 10 -59 14
-78 60 -37 89 63 45 306 42 454 -5 19 -6 66 -25 103 -41 38 -16 70 -28 72 -26
2 2 20 44 40 93 20 50 43 104 50 120 8 17 30 68 49 115 l35 85 -37 17 c-79 35
-174 62 -295 83 -15 3 -39 8 -54 11 -31 6 -388 15 -394 10z"/>
<path d="M11444 6956 c-297 -55 -528 -232 -629 -483 -42 -104 -54 -183 -51
-328 2 -104 7 -132 34 -211 60 -175 152 -296 299 -393 176 -115 363 -163 623
-157 85 2 169 7 185 11 17 3 49 10 72 16 68 15 171 56 232 93 68 42 145 110
140 125 -5 12 -319 331 -327 331 -3 0 -13 -6 -21 -14 -29 -25 -109 -65 -161
-80 -75 -22 -230 -17 -290 11 -61 27 -107 67 -131 114 l-19 39 532 2 533 3 2
125 c2 119 -20 275 -44 313 -4 7 -8 18 -9 25 -2 7 -21 46 -45 87 -54 95 -160
207 -235 249 -16 9 -36 20 -44 25 -39 24 -118 55 -198 78 -107 30 -333 40
-448 19z m296 -440 c19 -9 44 -24 56 -34 40 -34 95 -140 76 -143 -4 -1 -114
-2 -244 -3 -154 -1 -238 3 -238 9 1 20 42 101 63 123 21 23 79 54 122 65 32 9
128 -1 165 -17z"/>
<path d="M16165 6954 c-91 -17 -98 -18 -175 -47 -227 -84 -389 -238 -469 -447
-38 -99 -43 -123 -47 -265 -5 -195 40 -342 151 -490 115 -152 319 -271 535
-311 78 -14 315 -13 398 2 222 40 419 153 539 309 68 89 121 211 142 325 14
78 7 283 -13 355 -82 299 -329 509 -672 569 -97 18 -294 17 -389 0z m262 -488
c49 -9 116 -62 142 -115 59 -118 50 -288 -22 -383 -116 -154 -363 -104 -419
85 -21 71 -15 213 11 272 54 122 146 167 288 141z"/>
<path d="M18349 6950 c-95 -20 -201 -71 -254 -122 -22 -21 -43 -38 -46 -38 -3
0 -5 34 -5 75 l1 75 -302 0 -303 0 0 -765 0 -765 315 0 315 0 1 23 c0 12 1
186 3 387 2 348 3 368 24 420 53 132 146 180 341 175 l98 -2 0 278 0 279 -56
-1 c-31 -1 -90 -9 -132 -19z"/>
<path d="M19695 6963 c-76 -13 -168 -39 -210 -60 -48 -24 -136 -89 -143 -105
-11 -25 -21 0 -20 55 0 34 0 68 -1 75 -1 9 -68 12 -301 12 l-300 0 0 -765 0
-765 315 0 c173 0 315 3 315 8 0 4 2 178 3 387 3 413 5 422 62 506 19 27 48
49 94 72 63 31 70 32 187 32 l121 0 0 277 1 278 -52 -2 c-28 -1 -60 -3 -71 -5z"/>
<path d="M20582 6955 c-271 -50 -491 -205 -601 -422 -56 -112 -74 -195 -75
-338 -1 -71 2 -143 5 -160 16 -74 22 -93 42 -145 101 -263 337 -436 672 -495
128 -23 386 -13 500 18 147 40 246 92 332 174 l41 39 -165 167 c-91 92 -166
167 -168 167 -2 0 -25 -14 -51 -32 -86 -58 -160 -78 -276 -75 -90 2 -111 6
-160 30 -55 27 -116 88 -131 130 -6 16 23 17 527 17 l533 0 1 128 c1 186 -30
311 -108 443 -44 74 -160 196 -219 229 -88 50 -182 89 -261 110 -107 27 -327
35 -438 15z m300 -439 c62 -30 108 -86 128 -156 l7 -26 -238 1 c-131 0 -241 3
-245 7 -10 10 41 110 69 136 60 57 200 75 279 38z"/>
<path d="M22410 6950 c-297 -63 -502 -215 -614 -452 -57 -122 -82 -327 -56
-458 6 -30 13 -65 16 -78 12 -58 60 -158 114 -237 34 -49 131 -145 185 -181
76 -51 219 -116 288 -129 10 -3 26 -6 35 -9 47 -14 89 -18 222 -22 80 -2 168
1 195 7 28 5 64 12 80 15 122 21 274 104 369 199 74 76 155 216 133 232 -6 6
-102 54 -212 107 -110 53 -212 103 -227 111 -38 22 -46 19 -67 -24 -27 -52
-80 -105 -133 -132 -51 -26 -146 -30 -199 -9 -127 52 -190 198 -158 368 16 86
59 149 127 185 133 71 283 20 365 -125 11 -21 25 -38 31 -38 6 1 118 54 248
118 l238 117 -30 64 c-87 184 -247 304 -490 368 -88 23 -356 25 -460 3z"/>
<path d="M6019 6933 c0 -5 -1 -219 -1 -478 0 -529 5 -581 64 -722 54 -131 147
-229 274 -290 90 -43 175 -60 296 -61 160 -1 295 43 391 128 l47 42 0 -71 0
-71 300 0 300 0 1 23 c0 28 0 1466 0 1490 -1 16 -23 17 -316 17 l-315 0 -1
-372 c-1 -462 -1 -463 -41 -542 -42 -83 -103 -114 -215 -108 -45 3 -117 73
-132 127 -18 72 -19 95 -20 498 l-1 397 -315 0 c-173 0 -315 -3 -316 -7z"/>
<path d="M25157 6104 c-1 -1 -26 -4 -56 -7 -110 -12 -216 -89 -268 -195 -24
-51 -28 -68 -28 -157 0 -87 4 -107 26 -155 38 -80 91 -135 167 -172 63 -31 73
-33 172 -33 95 0 111 3 163 29 78 38 140 99 174 171 25 53 28 71 28 160 0 86
-4 107 -26 155 -51 109 -158 183 -284 199 -36 4 -66 7 -68 5z"/>
</g>
</svg>
