<?xml version="1.0" encoding="utf-8"?>
<!-- Generator: Adobe Illustrator 26.0.3, SVG Export Plug-In . SVG Version: 6.00 Build 0)  -->
<svg version="1.1" id="Layer_1" xmlns="http://www.w3.org/2000/svg" xmlns:xlink="http://www.w3.org/1999/xlink" x="0px" y="0px"
	 viewBox="0 0 1080 1350" style="enable-background:new 0 0 1080 1350;" xml:space="preserve">
<style type="text/css">
	.st0{fill:#FFFFFF;}
	.st1{fill:#63E6BE;}
	.st2{font-family:'Montserrat-Black';}
	.st3{font-size:67.2048px;}
</style>
<rect x="0.14" y="-0.04" class="st0" width="1080" height="1350"/>
<g>
	<g>
		<path class="st1" d="M209.8,629.52c0-101.35,77.78-172.53,183.84-172.53c64.58,0,115.49,23.57,148.01,65.99l-70.24,62.69
			c-19.33-24.51-42.42-38.65-72.12-38.65c-46.2,0-77.31,32.05-77.31,82.49c0,50.44,31.13,81.22,77.31,82.49
			c49.73,1.37,89.61-56.57,129.44-94.8c16.29-15.64,41.86-16.11,58.71-1.07l5.75,5.13c19.12,17.06,19.25,46.89,0.33,64.18
			c-35.64,32.56-74.84,81.57-122.85,102.91c-29.98,13.33-59.75,13.7-77.04,13.7C287.58,802.04,209.8,730.87,209.8,629.52z"/>
		<path d="M440.16,629.52c0-101.35,77.78-172.53,183.84-172.53c45.43,0,84.1,11.66,114.36,33.35c19.99,14.33,21.4,43.58,3.05,59.96
			l-12.8,11.43c-13.81,12.32-34.25,12.86-49.11,1.83c-14.39-10.69-30.75-16.53-49.84-16.53c-46.2,0-77.31,32.05-77.31,82.49
			c0,50.44,31.11,82.49,77.31,82.49c19.09,0,35.46-5.84,49.84-16.53c14.86-11.04,35.3-10.5,49.11,1.83l12.8,11.43
			c18.35,16.38,16.94,45.63-3.05,59.96c-30.26,21.69-68.93,33.35-114.36,33.35C517.93,802.04,440.16,730.87,440.16,629.52z"/>
		<path class="st1" d="M811.61,586.78H414.04c-231.55,0-64.97-29.09-64.97-64.97v-6.1c0-32.51,26.35-58.86,58.86-58.86h403.68
			c32.51,0,58.86,26.35,58.86,58.86v12.21C870.48,560.43,844.12,586.78,811.61,586.78z"/>
		<path d="M580.78,456.16c0,0,38.15,77.61,102.29,0H580.78z"/>
	</g>
	<text transform="matrix(1 0 0 1 256.3697 875.6035)" class="st2 st3">Course Correct.</text>
</g>
</svg>
